<svg width="500" height="500" viewBox="0 0 500 500" fill="none" xmlns="http://www.w3.org/2000/svg">
<rect width="500" height="500" rx="118" fill="#FBE7A2"/>
<path d="M0 206.741C0 135.041 63.3392 80.2257 133.685 94.0926C281.797 123.289 500 178.653 500 251.439C500 293.959 500 340.679 500 382.024C500 447.194 447.17 500 382 500H118C52.8304 500 0 447.17 0 382V206.741Z" fill="#9B82F7"/>
<path d="M0 417.639C0 376.779 29.957 342.096 70.3826 336.154L379.497 290.714C443.008 281.378 500 330.605 500 394.798C500 452.899 452.899 500 394.798 500H82.361C36.8742 500 0 463.126 0 417.639Z" fill="black"/>
<path d="M159.667 377L90 446.667L58.3334 415" stroke="#F5F5F5" stroke-width="21" stroke-linecap="round" stroke-linejoin="round"/>
</svg>
